<svg width="1200" height="750" viewBox="0 0 1200 750" fill="none" xmlns="http://www.w3.org/2000/svg">
  <rect width="1200" height="750" rx="48" fill="#09101F"/>
  <circle cx="160" cy="610" r="230" fill="url(#a)" fill-opacity="0.28"/>
  <circle cx="980" cy="130" r="180" fill="url(#b)" fill-opacity="0.22"/>
  <rect x="86" y="92" width="720" height="566" rx="34" fill="#07101F" stroke="#233454"/>
  <g opacity="0.2" stroke="#EEF2FF">
    <path d="M142 92V658"/>
    <path d="M198 92V658"/>
    <path d="M254 92V658"/>
    <path d="M310 92V658"/>
    <path d="M366 92V658"/>
    <path d="M422 92V658"/>
    <path d="M478 92V658"/>
    <path d="M534 92V658"/>
    <path d="M590 92V658"/>
    <path d="M646 92V658"/>
    <path d="M702 92V658"/>
    <path d="M758 92V658"/>
    <path d="M86 148H806"/>
    <path d="M86 204H806"/>
    <path d="M86 260H806"/>
    <path d="M86 316H806"/>
    <path d="M86 372H806"/>
    <path d="M86 428H806"/>
    <path d="M86 484H806"/>
    <path d="M86 540H806"/>
    <path d="M86 596H806"/>
  </g>
  <rect x="366" y="316" width="52" height="52" rx="10" fill="#D7FFE4"/>
  <rect x="310" y="316" width="52" height="52" rx="10" fill="#8AFFB0"/>
  <rect x="254" y="316" width="52" height="52" rx="10" fill="#8AFFB0"/>
  <rect x="254" y="372" width="52" height="52" rx="10" fill="#8AFFB0"/>
  <rect x="254" y="428" width="52" height="52" rx="10" fill="#8AFFB0"/>
  <rect x="310" y="428" width="52" height="52" rx="10" fill="#8AFFB0"/>
  <rect x="366" y="428" width="52" height="52" rx="10" fill="#8AFFB0"/>
  <rect x="534" y="204" width="52" height="52" rx="26" fill="#FF6D8B"/>
  <rect x="860" y="132" width="254" height="110" rx="28" fill="#101A31" stroke="#22345D"/>
  <rect x="860" y="276" width="254" height="292" rx="28" fill="#101A31" stroke="#22345D"/>
  <text x="900" y="188" fill="#A8B6D8" font-family="Arial, sans-serif" font-size="24">Player</text>
  <text x="900" y="220" fill="#EEF2FF" font-family="Arial, sans-serif" font-size="34" font-weight="700">Guest</text>
  <text x="900" y="330" fill="#70E1FF" font-family="Arial, sans-serif" font-size="22" font-weight="700">Leaderboard</text>
  <text x="900" y="382" fill="#EEF2FF" font-family="Arial, sans-serif" font-size="24">#1   SnekLord   42</text>
  <text x="900" y="432" fill="#EEF2FF" font-family="Arial, sans-serif" font-size="24">#2   Goblin     35</text>
  <text x="900" y="482" fill="#EEF2FF" font-family="Arial, sans-serif" font-size="24">#3   Guest      28</text>
  <text x="900" y="596" fill="#A8B6D8" font-family="Arial, sans-serif" font-size="26">Classic Nokia brain rot, now online.</text>
  <defs>
    <radialGradient id="a" cx="0" cy="0" r="1" gradientUnits="userSpaceOnUse" gradientTransform="translate(160 610) rotate(90) scale(230)">
      <stop stop-color="#2F5AFF"/>
      <stop offset="1" stop-color="#2F5AFF" stop-opacity="0"/>
    </radialGradient>
    <radialGradient id="b" cx="0" cy="0" r="1" gradientUnits="userSpaceOnUse" gradientTransform="translate(980 130) rotate(90) scale(180)">
      <stop stop-color="#70E1FF"/>
      <stop offset="1" stop-color="#70E1FF" stop-opacity="0"/>
    </radialGradient>
  </defs>
</svg>
